<?xml version="1.0" encoding="UTF-8" standalone="no"?>
<svg
   xmlns:dc="http://purl.org/dc/elements/1.1/"
   xmlns:cc="http://creativecommons.org/ns#"
   xmlns:rdf="http://www.w3.org/1999/02/22-rdf-syntax-ns#"
   xmlns:svg="http://www.w3.org/2000/svg"
   xmlns="http://www.w3.org/2000/svg"
   xmlns:sodipodi="http://sodipodi.sourceforge.net/DTD/sodipodi-0.dtd"
   xmlns:inkscape="http://www.inkscape.org/namespaces/inkscape"
   id="Layer_1"
   data-name="Layer 1"
   viewBox="0 0 498.17 442.04"
   version="1.1"
   sodipodi:docname="icon-mask-grey.svg"
   inkscape:version="0.92.5 (2060ec1f9f, 2020-04-08)">
  <metadata
     id="metadata21">
    <rdf:RDF>
      <cc:Work
         rdf:about="">
        <dc:format>image/svg+xml</dc:format>
        <dc:type
           rdf:resource="http://purl.org/dc/dcmitype/StillImage" />
        <dc:title />
      </cc:Work>
    </rdf:RDF>
  </metadata>
  <sodipodi:namedview
     pagecolor="#b65c5c"
     bordercolor="#666666"
     borderopacity="1"
     objecttolerance="10"
     gridtolerance="10"
     guidetolerance="10"
     inkscape:pageopacity="0"
     inkscape:pageshadow="2"
     inkscape:window-width="1734"
     inkscape:window-height="937"
     id="namedview19"
     showgrid="false"
     inkscape:zoom="0.53388833"
     inkscape:cx="-430.83246"
     inkscape:cy="221.02"
     inkscape:window-x="0"
     inkscape:window-y="0"
     inkscape:window-maximized="0"
     inkscape:current-layer="Layer_1" />
  <defs
     id="defs4">
    <style
       id="style2">.cls-1{fill:#fff;}</style>
  </defs>
  <path
     class="cls-1"
     d="m 127.93115,179.13869 -1.25705,13.96724 -3.82354,43.17622 A 42.181058,42.181058 0 0 1 90.638628,247.17661 41.674746,41.674746 0 0 1 66.440384,236.80593 c -0.663445,-0.59361 -1.326891,-1.22214 -2.077624,-1.8332 C 49.92412,222.38475 25.725888,209.01113 3.3608448,217.05975 35.450575,180.27353 67.10383,164.19375 89.800584,162.58752 a 44.922129,44.922129 0 0 1 12.483216,0.78565 26.188571,26.188571 0 0 1 3.57911,0.87295 41.395402,41.395402 0 0 1 22.06824,14.89257 z"
     id="path6"
     inkscape:connector-curvature="0"
     style="fill:#3f4d5a;stroke-width:1.7459048;fill-opacity:1" />
  <path
     class="cls-1"
     d="m 139.59379,175.89131 a 6.4249294,6.4249294 0 0 1 5.74403,6.8614 l -0.62852,8.06609 -3.49181,44.85229 a 6.4249294,6.4249294 0 0 1 -6.98362,5.8837 v 0 a 6.3900114,6.3900114 0 0 1 -5.72658,-6.8614 l 3.3696,-43.87459 0.69836,-9.04379 a 6.4074704,6.4074704 0 0 1 6.98362,-5.8837 z"
     id="path8"
     inkscape:connector-curvature="0"
     style="fill:#3f4d5a;stroke-width:1.7459048;fill-opacity:1" />
  <path
     class="cls-1"
     d="m 449.02049,236.43929 a 10.300838,10.300838 0 0 1 -2.06016,4.66157 c -1.8332,2.19984 -5.08059,4.32983 -11.06904,3.80607 l -278.54164,-1.20467 a 16.149619,16.149619 0 0 1 -10.63256,-5.55199 l 3.9632,-44.83483 1.04755,-11.78485 a 16.201996,16.201996 0 0 1 11.45313,-3.61402 l 88.32532,15.39887 186.07853,32.45637 c 11.9769,1.06501 11.43567,10.66748 11.43567,10.66748 z"
     id="path10"
     inkscape:connector-curvature="0"
     style="fill:#3f4d5a;stroke-width:1.7459048;fill-opacity:1" />
  <path
     class="cls-1"
     d="m 361.23641,188.93323 -19.5716,0.41901 -23.49987,-3.59657 -27.93449,-26.85201 a 11.505512,11.505512 0 0 0 -16.28929,0.2968 l -16.53372,17.21463 -19.20495,-2.91567 24.44267,-25.36799 a 11.505512,11.505512 0 0 0 -0.31426,-16.28929 l -32.85793,-31.54851 a 11.522971,11.522971 0 0 0 -16.28929,0.29681 l -62.25896,64.59848 -1.7459,0.85549 -12.88478,-0.87295 a 55.764198,55.764198 0 0 0 -7.61215,-6.25034 11.575348,11.575348 0 0 0 9.53264,-3.49181 l 63.4811,-65.925366 A 11.505512,11.505512 0 0 0 201.38137,73.214662 L 168.59328,41.63124 a 11.522971,11.522971 0 0 0 -16.30675,0.279346 L 88.805427,107.83594 a 11.522971,11.522971 0 0 0 0.296805,16.30676 l 31.112018,29.95973 a 55.502311,55.502311 0 0 0 -9.42789,-3.35215 40.155809,40.155809 0 0 0 -4.99329,-1.09992 55.973706,55.973706 0 0 0 -11.749938,-0.90787 77.256284,77.256284 0 0 0 -16.708305,2.26968 L 63.088251,137.35919 A 28.143985,28.143985 0 0 1 62.232754,97.517647 L 140.25724,16.123573 a 28.143985,28.143985 0 0 1 39.84154,-0.838035 z"
     id="path12"
     inkscape:connector-curvature="0"
     style="fill:#3f4d5a;stroke-width:1.7459048;fill-opacity:1" />
  <path
     class="cls-1"
     d="M 420.82413,7.5337215 H 308.03869 A 28.213821,28.213821 0 0 0 279.84232,35.730083 v 37.851219 l 42.16361,42.093758 h 89.7395 a 11.522971,11.522971 0 0 1 11.50551,11.52297 v 45.55066 a 11.54043,11.54043 0 0 1 -11.50551,11.54042 h -21.14291 l 20.56676,20.56676 h 37.86868 V 35.730083 A 28.213821,28.213821 0 0 0 420.82413,7.5337215 Z M 423.2684,86.885092 A 11.54043,11.54043 0 0 1 411.76289,98.425527 H 320.26003 A 11.54043,11.54043 0 0 1 308.73704,86.885092 V 41.351896 a 11.522971,11.522971 0 0 1 11.52299,-11.592808 h 91.4854 a 11.522971,11.522971 0 0 1 11.50551,11.522972 z"
     id="path14"
     inkscape:connector-curvature="0"
     style="fill:#3f4d5a;stroke-width:1.7459048;fill-opacity:1" />
  <path
     class="cls-1"
     d="M 420.84159,263.57065 H 82.590008 a 28.196361,28.196361 0 0 0 -28.178905,28.19636 v 112.75053 a 28.196361,28.196361 0 0 0 28.178905,28.1789 H 420.84159 a 28.213821,28.213821 0 0 0 28.19637,-28.1789 V 291.76701 A 28.213821,28.213821 0 0 0 420.84159,263.57065 Z M 149.33594,393.90243 a 11.505512,11.505512 0 0 1 -11.52297,11.50552 H 92.262313 A 11.505512,11.505512 0 0 1 80.739342,393.90243 v -91.52032 a 11.54043,11.54043 0 0 1 11.522971,-11.54043 h 45.550657 a 11.522971,11.522971 0 0 1 11.52297,11.54043 z m 85.28745,0 a 11.488053,11.488053 0 0 1 -11.50551,11.50552 h -45.55065 a 11.505512,11.505512 0 0 1 -11.54044,-11.50552 v -91.52032 a 11.54043,11.54043 0 0 1 11.54044,-11.54043 h 45.55065 a 11.522971,11.522971 0 0 1 11.50551,11.54043 z m 85.30491,0 a 11.505512,11.505512 0 0 1 -11.52297,11.50552 H 262.85468 A 11.505512,11.505512 0 0 1 251.3317,393.90243 v -91.52032 a 11.54043,11.54043 0 0 1 11.52298,-11.54043 h 45.55065 a 11.522971,11.522971 0 0 1 11.52297,11.54043 z m 44.53802,-17.58125 a 28.178902,28.178902 0 1 1 28.17891,-28.19636 28.213821,28.213821 0 0 1 -28.17891,28.19636 z"
     id="path16"
     inkscape:connector-curvature="0"
     style="fill:#3f4d5a;stroke-width:1.7459048;fill-opacity:1" />
</svg>
