<?xml version="1.0" encoding="UTF-8" standalone="no"?>
<!-- Created with Inkscape (http://www.inkscape.org/) -->

<svg
   xmlns:dc="http://purl.org/dc/elements/1.1/"
   xmlns:cc="http://creativecommons.org/ns#"
   xmlns:rdf="http://www.w3.org/1999/02/22-rdf-syntax-ns#"
   xmlns:svg="http://www.w3.org/2000/svg"
   xmlns="http://www.w3.org/2000/svg"
   xmlns:sodipodi="http://sodipodi.sourceforge.net/DTD/sodipodi-0.dtd"
   xmlns:inkscape="http://www.inkscape.org/namespaces/inkscape"
   version="1.1"
   id="svg2"
   xml:space="preserve"
   width="664.22266"
   height="589.38934"
   viewBox="0 0 664.22266 589.38934"
   sodipodi:docname="themes.svg"
   inkscape:version="0.92.5 (2060ec1f9f, 2020-04-08)"><metadata
     id="metadata8"><rdf:RDF><cc:Work
         rdf:about=""><dc:format>image/svg+xml</dc:format><dc:type
           rdf:resource="http://purl.org/dc/dcmitype/StillImage" /><dc:title></dc:title></cc:Work></rdf:RDF></metadata><defs
     id="defs6"><clipPath
       clipPathUnits="userSpaceOnUse"
       id="clipPath18"><path
         d="M 0,442.042 H 498.167 V 0 H 0 Z"
         id="path16"
         inkscape:connector-curvature="0" /></clipPath><clipPath
       clipPathUnits="userSpaceOnUse"
       id="clipPath50"><path
         d="m 159.257,247.785 -0.286,-153.427 149.003,20.941 0.284,153.428 z"
         id="path48"
         inkscape:connector-curvature="0" /></clipPath></defs><sodipodi:namedview
     pagecolor="#ffffff"
     bordercolor="#666666"
     borderopacity="1"
     objecttolerance="10"
     gridtolerance="10"
     guidetolerance="10"
     inkscape:pageopacity="0"
     inkscape:pageshadow="2"
     inkscape:window-width="1433"
     inkscape:window-height="852"
     id="namedview4"
     showgrid="false"
     inkscape:zoom="0.40041443"
     inkscape:cx="332.11133"
     inkscape:cy="294.69467"
     inkscape:window-x="0"
     inkscape:window-y="0"
     inkscape:window-maximized="0"
     inkscape:current-layer="g10" /><g
     id="g10"
     inkscape:groupmode="layer"
     inkscape:label="Web Puzzlers Icons Svg"
     transform="matrix(1.3333333,0,0,-1.3333333,0,589.38933)"><g
       id="g12"
       transform="matrix(1.2992052,0,0,1.2992052,-76.580634,-68.003788)"><g
         id="g14"
         clip-path="url(#clipPath18)"><g
           id="g20"
           transform="translate(363.9681,155.911)"><path
             d="m 0,0 c 0.843,-0.361 1.696,-0.703 2.56,-1.023 0.186,-0.069 0.377,-0.128 0.564,-0.195 0.68,-0.245 1.364,-0.484 2.056,-0.703 0.322,-0.102 0.65,-0.189 0.974,-0.285 0.566,-0.168 1.131,-0.336 1.704,-0.487 0.075,-0.02 0.148,-0.044 0.223,-0.063 0.672,-0.174 1.352,-0.333 2.034,-0.483 0.156,-0.034 0.313,-0.064 0.469,-0.097 0.648,-0.136 1.301,-0.261 1.957,-0.376 0.221,-0.038 0.441,-0.077 0.663,-0.113 0.802,-0.13 1.609,-0.251 2.423,-0.348 L -2.698,5.795 c -0.814,0.098 -1.62,0.218 -2.423,0.348 -0.221,0.037 -0.442,0.075 -0.663,0.114 -0.656,0.114 -1.308,0.239 -1.956,0.376 -0.156,0.033 -0.314,0.062 -0.469,0.096 -0.759,0.167 -1.51,0.35 -2.257,0.546 -0.574,0.151 -1.139,0.32 -1.706,0.488 -0.324,0.096 -0.651,0.183 -0.972,0.284 -0.693,0.219 -1.376,0.459 -2.057,0.703 -0.187,0.067 -0.378,0.126 -0.564,0.195 -0.864,0.321 -1.717,0.662 -2.561,1.024 -0.229,0.098 -0.451,0.208 -0.679,0.309 -0.61,0.271 -1.219,0.544 -1.818,0.837 -0.732,0.357 -1.458,0.728 -2.172,1.116 -0.009,0.005 -0.017,0.009 -0.026,0.013 l 0.003,-10e-4 c -10e-4,0 -0.002,10e-4 -0.003,10e-4 L -4.696,2.276 C -4.018,1.906 -3.331,1.551 -2.635,1.21 -2.59,1.187 -2.543,1.168 -2.498,1.146 -1.902,0.856 -1.296,0.584 -0.689,0.314 -0.458,0.211 -0.232,0.1 0,0"
             style="fill:#022454;fill-opacity:1;fill-rule:nonzero;stroke:none"
             id="path22"
             inkscape:connector-curvature="0" /></g><g
           id="g24"
           transform="translate(301.561,328.1391)"><path
             d="M 0,0 -18.325,9.968 60.058,20.984 78.382,11.016 Z"
             style="fill:#02285a;fill-opacity:1;fill-rule:nonzero;stroke:none"
             id="path26"
             inkscape:connector-curvature="0" /></g><g
           id="g28"
           transform="translate(239.0853,357.8083)"><path
             d="M 0,0 C 0.23,0.411 0.463,0.819 0.705,1.222 0.94,1.615 1.183,2.004 1.429,2.389 1.682,2.785 1.939,3.178 2.203,3.566 2.47,3.957 2.742,4.343 3.02,4.725 3.264,5.061 3.51,5.395 3.762,5.723 4.058,6.108 4.361,6.485 4.667,6.86 4.928,7.18 5.19,7.498 5.459,7.81 5.775,8.176 6.1,8.532 6.426,8.887 c 0.28,0.304 0.558,0.608 0.845,0.904 0.337,0.347 0.683,0.683 1.03,1.019 0.294,0.284 0.586,0.57 0.887,0.845 0.324,0.298 0.659,0.583 0.992,0.87 0.369,0.318 0.737,0.637 1.116,0.942 0.337,0.273 0.682,0.532 1.027,0.794 0.385,0.292 0.771,0.584 1.165,0.863 0.597,0.422 1.199,0.839 1.816,1.229 0.041,0.025 0.083,0.049 0.123,0.075 0.644,0.403 1.3,0.784 1.963,1.15 0.146,0.08 0.29,0.162 0.437,0.241 0.667,0.357 1.342,0.695 2.027,1.013 0.47,0.219 0.95,0.412 1.428,0.612 0.359,0.149 0.713,0.31 1.076,0.449 0.507,0.193 1.024,0.358 1.54,0.53 0.344,0.114 0.684,0.243 1.031,0.347 0.579,0.174 1.167,0.315 1.755,0.46 0.292,0.072 0.58,0.161 0.875,0.226 0.886,0.195 1.78,0.358 2.683,0.485 0.79,0.111 1.573,0.184 2.351,0.239 0.162,0.011 0.324,0.024 0.485,0.033 0.754,0.042 1.501,0.061 2.241,0.052 0.129,-0.001 0.256,-0.008 0.384,-0.011 0.685,-0.017 1.364,-0.054 2.036,-0.113 0.105,-0.01 0.212,-0.015 0.318,-0.026 0.724,-0.071 1.438,-0.172 2.144,-0.292 0.155,-0.027 0.309,-0.055 0.463,-0.084 0.71,-0.132 1.414,-0.281 2.105,-0.462 0.052,-0.013 0.103,-0.03 0.155,-0.044 0.653,-0.174 1.295,-0.374 1.93,-0.59 0.143,-0.049 0.287,-0.096 0.429,-0.147 0.656,-0.235 1.301,-0.489 1.935,-0.767 0.116,-0.051 0.23,-0.107 0.345,-0.16 0.646,-0.293 1.283,-0.601 1.904,-0.938 l -18.325,9.968 c -0.357,0.195 -0.72,0.382 -1.086,0.562 -0.268,0.132 -0.544,0.253 -0.817,0.377 -0.116,0.052 -0.23,0.108 -0.346,0.159 -0.633,0.278 -1.279,0.533 -1.934,0.767 -0.142,0.051 -0.286,0.098 -0.43,0.147 -0.634,0.216 -1.277,0.416 -1.93,0.59 -0.052,0.014 -0.102,0.031 -0.155,0.045 -0.019,0.005 -0.037,0.011 -0.057,0.016 -0.672,0.174 -1.357,0.317 -2.048,0.446 -0.154,0.028 -0.308,0.057 -0.463,0.083 -0.706,0.12 -1.42,0.221 -2.144,0.293 -0.105,0.01 -0.212,0.015 -0.318,0.025 -0.672,0.059 -1.35,0.097 -2.035,0.113 -0.128,0.003 -0.256,0.01 -0.384,0.012 -0.74,0.009 -1.488,-0.01 -2.241,-0.053 C 14.592,32.172 14.43,32.16 14.268,32.148 13.49,32.093 12.708,32.02 11.917,31.909 11.015,31.783 10.121,31.619 9.234,31.424 8.939,31.359 8.651,31.27 8.358,31.198 7.771,31.053 7.183,30.912 6.605,30.739 6.256,30.634 5.916,30.505 5.57,30.39 5.056,30.219 4.54,30.054 4.033,29.861 3.67,29.722 3.315,29.561 2.956,29.411 2.478,29.212 1.999,29.019 1.529,28.801 1.47,28.773 1.409,28.752 1.35,28.724 0.726,28.43 0.112,28.114 -0.497,27.787 -0.644,27.708 -0.79,27.627 -0.936,27.546 -1.599,27.18 -2.255,26.799 -2.898,26.395 -2.939,26.37 -2.98,26.347 -3.02,26.321 c -0.49,-0.309 -0.974,-0.628 -1.452,-0.959 -0.125,-0.086 -0.242,-0.183 -0.366,-0.27 -0.393,-0.279 -0.778,-0.57 -1.163,-0.862 -0.345,-0.262 -0.69,-0.522 -1.028,-0.794 -0.378,-0.306 -0.747,-0.624 -1.116,-0.943 -0.233,-0.201 -0.476,-0.39 -0.706,-0.596 -0.098,-0.088 -0.189,-0.184 -0.286,-0.273 -0.301,-0.276 -0.593,-0.562 -0.886,-0.846 -0.347,-0.335 -0.693,-0.671 -1.03,-1.018 -0.287,-0.296 -0.566,-0.601 -0.845,-0.905 -0.209,-0.226 -0.426,-0.442 -0.63,-0.673 -0.116,-0.131 -0.222,-0.271 -0.337,-0.404 -0.27,-0.312 -0.531,-0.631 -0.793,-0.951 -0.306,-0.374 -0.608,-0.75 -0.903,-1.134 -0.253,-0.33 -0.5,-0.664 -0.745,-1.001 -0.153,-0.211 -0.316,-0.413 -0.466,-0.627 -0.121,-0.173 -0.23,-0.356 -0.35,-0.531 -0.264,-0.388 -0.521,-0.78 -0.774,-1.177 -0.246,-0.385 -0.488,-0.772 -0.723,-1.165 -0.242,-0.405 -0.476,-0.813 -0.706,-1.225 -0.125,-0.223 -0.261,-0.437 -0.382,-0.662 -0.13,-0.242 -0.249,-0.49 -0.375,-0.735 -0.108,-0.21 -0.217,-0.419 -0.322,-0.631 -0.37,-0.743 -0.727,-1.494 -1.057,-2.258 -0.331,-0.765 -0.639,-1.541 -0.931,-2.324 -0.022,-0.061 -0.049,-0.12 -0.072,-0.181 -0.174,-0.473 -0.334,-0.952 -0.493,-1.432 -0.039,-0.117 -0.083,-0.232 -0.121,-0.35 -0.217,-0.673 -0.417,-1.352 -0.604,-2.035 -0.053,-0.196 -0.098,-0.394 -0.149,-0.59 -0.127,-0.492 -0.25,-0.985 -0.36,-1.482 -0.057,-0.255 -0.107,-0.511 -0.159,-0.767 -0.092,-0.445 -0.178,-0.892 -0.255,-1.341 -0.047,-0.272 -0.091,-0.544 -0.133,-0.817 -0.069,-0.445 -0.129,-0.893 -0.184,-1.341 -0.033,-0.268 -0.066,-0.537 -0.094,-0.806 -0.05,-0.482 -0.088,-0.966 -0.121,-1.451 -0.016,-0.232 -0.038,-0.464 -0.05,-0.697 -0.038,-0.716 -0.062,-1.434 -0.063,-2.154 -0.011,-6.173 1.308,-11.848 3.693,-16.708 l 18.325,-9.968 c -2.386,4.859 -3.705,10.534 -3.693,16.707 10e-4,0.721 0.025,1.439 0.063,2.155 0.012,0.233 0.033,0.464 0.05,0.697 0.033,0.484 0.071,0.968 0.12,1.45 0.028,0.27 0.062,0.539 0.095,0.809 0.055,0.447 0.115,0.893 0.183,1.337 0.042,0.274 0.086,0.547 0.133,0.819 0.078,0.448 0.164,0.894 0.255,1.339 0.052,0.257 0.103,0.515 0.16,0.77 0.11,0.495 0.232,0.987 0.359,1.478 0.051,0.197 0.096,0.396 0.15,0.593 0.186,0.683 0.387,1.362 0.604,2.035 0.038,0.117 0.081,0.232 0.12,0.35 0.18,0.541 0.367,1.079 0.566,1.612 0.292,0.783 0.599,1.56 0.931,2.324 0.33,0.765 0.687,1.516 1.057,2.26 0.104,0.211 0.213,0.419 0.32,0.628 0.244,0.472 0.5,0.937 0.759,1.4"
             style="fill:#011c45;fill-opacity:1;fill-rule:nonzero;stroke:none"
             id="path30"
             inkscape:connector-curvature="0" /></g><g
           id="g32"
           transform="translate(136.5484,90.4997)"><path
             d="m 0,0 0.398,214.504 -18.324,9.969 -0.398,-214.505 c -0.03,-15.592 7.489,-28.224 18.838,-34.398 l 18.324,-9.968 C 7.49,-28.224 -0.029,-15.593 0,0"
             style="fill:#011b41;fill-opacity:1;fill-rule:nonzero;stroke:none"
             id="path34"
             inkscape:connector-curvature="0" /></g><g
           id="g36"
           transform="translate(136.9469,305.0041)"><path
             d="M 0,0 -18.325,9.968 81.582,24.009 99.906,14.041 Z"
             style="fill:#02285a;fill-opacity:1;fill-rule:nonzero;stroke:none"
             id="path38"
             inkscape:connector-curvature="0" /></g><g
           id="g40"
           transform="translate(269.3273,379.7493)"><path
             d="m 0,0 c 14.154,1.989 26.41,-5.131 32.266,-17.144 2.385,-4.868 3.736,-10.538 3.725,-16.711 -0.012,-6.174 -1.352,-12.222 -3.757,-17.755 l 78.382,11.016 -0.083,-44.734 c -29.829,-11.946 -52.104,-44.136 -52.168,-78.668 -0.065,-34.531 22.102,-60.45 51.903,-64.015 l -0.132,-70.922 -202.383,-28.443 c -22.429,-3.153 -40.577,13.918 -40.532,38.126 l 0.399,214.505 99.906,14.041 c -2.386,4.859 -3.705,10.534 -3.693,16.707 0.011,6.174 1.384,12.227 3.789,17.768 C -26.475,-12.563 -14.162,-1.99 0,0"
             style="fill:#03326d;fill-opacity:1;fill-rule:nonzero;stroke:none"
             id="path42"
             inkscape:connector-curvature="0" /></g></g></g><g
       id="g44"
       transform="matrix(1.2992052,0,0,1.2992052,-76.580634,-68.003788)"><g
         id="g46"
         clip-path="url(#clipPath50)"><g
           id="g52"
           transform="translate(189.2397,196.1005)"><path
             d="m 0,0 c -0.379,-0.053 -0.766,-0.121 -1.162,-0.204 -7.626,-1.625 -18.203,-8.946 -28.962,-23.752 1.583,0.839 3.192,1.335 4.792,1.56 5.964,0.838 11.79,-2.101 15.599,-5.151 0.24,-0.191 0.464,-0.375 0.687,-0.56 2.167,-1.787 4.969,-2.751 8.084,-2.607 0.427,0.019 0.85,0.058 1.271,0.117 3.614,0.508 6.972,2.482 9.502,5.33 l 1.311,15.752 0.426,5.116 C 9.75,-2.076 7.167,-0.511 4.204,-0.055 3.82,0.021 3.428,0.087 3.011,0.097 2.082,0.184 1.074,0.151 0,0"
             style="fill:#ffffff;fill-opacity:1;fill-rule:nonzero;stroke:none"
             id="path54"
             inkscape:connector-curvature="0" /></g><g
           id="g56"
           transform="translate(204.4607,193.4065)"><path
             d="M 0,0 C -1.105,-0.155 -2.044,-1.205 -2.129,-2.43 L -2.367,-5.731 -3.526,-21.72 c -0.09,-1.266 0.757,-2.245 1.91,-2.213 0.073,0.003 0.145,0.009 0.217,0.019 1.11,0.156 2.057,1.21 2.142,2.439 l 1.192,16.349 0.213,2.934 C 2.239,-0.926 1.392,0.053 0.23,0.019 0.153,0.017 0.076,0.011 0,0"
             style="fill:#ffffff;fill-opacity:1;fill-rule:nonzero;stroke:none"
             id="path58"
             inkscape:connector-curvature="0" /></g><g
           id="g60"
           transform="translate(212.1414,193.7676)"><path
             d="m 0,0 c -1.199,-0.169 -2.363,-0.803 -3.393,-1.803 l -0.36,-4.303 -1.36,-16.364 c 0.975,-1.03 2.199,-1.575 3.553,-1.506 l 93.12,12.655 c 0.209,0.01 0.409,0.029 0.598,0.055 1.627,0.229 2.559,1.05 3.105,1.832 0.595,0.904 0.693,1.782 0.693,1.782 0,0 0.19,3.493 -3.814,3.311 L 29.955,-1.369 0.438,0.041 C 0.292,0.034 0.146,0.02 0,0"
             style="fill:#ffffff;fill-opacity:1;fill-rule:nonzero;stroke:none"
             id="path62"
             inkscape:connector-curvature="0" /></g><g
           id="g64"
           transform="translate(211.8312,255.1744)"><path
             d="m 0,0 c -2.477,-0.348 -4.954,-1.745 -6.809,-4.092 l -26.136,-33.036 c -3.613,-4.553 -3.496,-10.976 0.261,-14.329 l 4.749,-4.268 c 1.9,0.768 3.775,1.317 5.593,1.607 0.162,0.027 0.323,0.052 0.483,0.074 1.196,0.168 2.347,0.216 3.442,0.149 0.688,-0.007 1.265,-0.09 1.665,-0.163 1.089,-0.141 2.146,-0.399 3.154,-0.767 l -10.378,9.354 c -1.534,1.375 -1.57,4.007 -0.093,5.874 l 21.272,26.768 c 0.755,0.95 1.761,1.515 2.769,1.657 0.963,0.135 1.928,-0.116 2.678,-0.788 l 10.945,-9.863 c 1.527,-1.375 1.571,-3.997 0.094,-5.864 L -7.583,-54.455 c -0.757,-0.952 -1.768,-1.517 -2.781,-1.659 -0.136,-0.019 -0.273,-0.031 -0.41,-0.034 0.912,-0.546 1.76,-1.179 2.544,-1.899 l 4.308,0.294 c 0.185,0.13 0.377,0.261 0.57,0.383 l 20.854,26.243 c 0.762,0.958 1.77,1.527 2.78,1.669 0.959,0.135 1.919,-0.117 2.668,-0.791 l 10.945,-9.863 c 1.527,-1.376 1.578,-3.996 0.093,-5.865 l -8.18,-10.294 6.423,-0.152 5.57,7.015 c 0.76,0.951 1.767,1.516 2.775,1.658 0.963,0.135 1.927,-0.116 2.673,-0.789 l 9.306,-8.381 7.856,-0.184 6.536,1.065 L 6.513,-1.918 C 4.693,-0.281 2.346,0.33 0,0"
             style="fill:#ffffff;fill-opacity:1;fill-rule:nonzero;stroke:none"
             id="path66"
             inkscape:connector-curvature="0" /></g><g
           id="g68"
           transform="translate(298.8302,267.3862)"><path
             d="m 0,0 -37.689,-5.297 c -5.207,-0.732 -9.437,-5.881 -9.447,-11.501 l -0.026,-13.661 14.047,-13.195 29.998,4.216 c 2.123,0.298 3.842,-1.327 3.838,-3.627 L 0.69,-59.501 c -0.004,-2.291 -1.73,-4.392 -3.853,-4.69 l -7.065,-0.993 6.867,-6.469 12.657,1.779 0.113,61.023 C 9.42,-3.231 5.207,0.732 0,0 m -33.705,-37.514 c -2.131,-0.299 -3.849,1.318 -3.845,3.609 l 0.03,16.436 c 0.005,2.308 1.73,4.401 3.861,4.7 l 30.6,4.3 c 2.123,0.299 3.842,-1.309 3.837,-3.618 l -0.03,-16.436 c -0.005,-2.291 -1.73,-4.392 -3.853,-4.69 z"
             style="fill:#ffffff;fill-opacity:1;fill-rule:nonzero;stroke:none"
             id="path70"
             inkscape:connector-curvature="0" /></g><g
           id="g72"
           transform="translate(298.6586,175.0049)"><path
             d="m 0,0 -113.083,-15.893 c -5.199,-0.73 -9.429,-5.88 -9.439,-11.5 l -0.076,-40.679 c -0.01,-5.62 4.203,-9.583 9.402,-8.852 l 113.083,15.893 c 5.206,0.731 9.436,5.881 9.447,11.501 L 9.409,-8.851 C 9.42,-3.231 5.207,0.732 0,0 m -52.916,-58.607 c -2.123,-0.298 -3.841,1.318 -3.837,3.61 l 0.061,33.035 c 0.005,2.292 1.73,4.392 3.853,4.691 l 15.236,2.141 c 2.123,0.298 3.849,-1.317 3.845,-3.608 l -0.061,-33.036 c -0.005,-2.292 -1.738,-4.394 -3.861,-4.692 l -15.236,-2.141 m -28.509,-4.007 c -2.139,-0.3 -3.858,1.316 -3.853,3.608 l 0.061,33.035 c 0.004,2.292 1.73,4.393 3.869,4.693 l 15.228,2.14 c 2.122,0.299 3.841,-1.318 3.837,-3.609 l -0.061,-33.036 c -0.005,-2.291 -1.73,-4.392 -3.853,-4.691 l -15.228,-2.14 m -28.517,-4.008 c -2.123,-0.298 -3.85,1.318 -3.845,3.609 l 0.061,33.036 c 0.004,2.291 1.738,4.393 3.861,4.691 l 15.228,2.14 c 2.122,0.299 3.841,-1.318 3.837,-3.609 l -0.062,-33.036 c -0.004,-2.291 -1.73,-4.392 -3.852,-4.691 l -15.228,-2.14 m 91.018,23.285 c -5.199,-0.73 -9.412,3.233 -9.401,8.853 0.01,5.611 4.24,10.761 9.439,11.491 5.206,0.732 9.42,-3.231 9.409,-8.842 -0.01,-5.62 -4.24,-10.77 -9.447,-11.502"
             style="fill:#ffffff;fill-opacity:1;fill-rule:nonzero;stroke:none"
             id="path74"
             inkscape:connector-curvature="0" /></g></g></g></g></svg>